<svg width="48" height="48" viewBox="0 0 48 48" fill="none" xmlns="http://www.w3.org/2000/svg">
<g clip-path="url(#clip0_1291_4687)">
<path d="M24 0C17.6348 0 11.5303 2.52856 7.02944 7.02944C2.52856 11.5303 0 17.6348 0 24C0 30.3652 2.52856 36.4697 7.02944 40.9706C11.5303 45.4714 17.6348 48 24 48C30.3652 48 36.4697 45.4714 40.9706 40.9706C45.4714 36.4697 48 30.3652 48 24C48 17.6348 45.4714 11.5303 40.9706 7.02944C36.4697 2.52856 30.3652 0 24 0Z" fill="#039BE5"/>
<path d="M27.2495 30.3609H33.4604L34.4356 24.0514H27.2482V20.603C27.2482 17.9819 28.1047 15.6577 30.5564 15.6577H34.4962V10.1516C33.804 10.0581 32.34 9.85352 29.5737 9.85352C23.7973 9.85352 20.4108 12.904 20.4108 19.8539V24.0514H14.4727V30.3609H20.4108V47.7028C21.5868 47.8796 22.7779 47.9996 24.0007 47.9996C25.1059 47.9996 26.1847 47.8986 27.2495 47.7546V30.3609Z" fill="white"/>
</g>
<defs>
<clipPath id="clip0_1291_4687">
<rect width="48" height="48" fill="white"/>
</clipPath>
</defs>
</svg>
