<svg width="48" height="48" viewBox="0 0 48 48" fill="none" xmlns="http://www.w3.org/2000/svg">
<path d="M46.9227 35.8055C46.4439 38.3192 44.409 40.2344 41.8953 40.5935C37.9451 41.192 31.3616 41.9102 23.9402 41.9102C16.6384 41.9102 10.0549 41.192 5.98504 40.5935C3.47132 40.2344 1.43641 38.3192 0.957606 35.8055C0.478803 33.0524 0 28.9825 0 23.9551C0 18.9277 0.478803 14.8579 0.957606 12.1047C1.43641 9.59102 3.47132 7.67581 5.98504 7.31671C9.93516 6.7182 16.5187 6 23.9402 6C31.3616 6 37.8254 6.7182 41.8953 7.31671C44.409 7.67581 46.4439 9.59102 46.9227 12.1047C47.4015 14.8579 48 18.9277 48 23.9551C47.8803 28.9825 47.4015 33.0524 46.9227 35.8055Z" fill="#FF3D00"/>
<path d="M19.1523 32.3343V15.5762L33.5164 23.9552L19.1523 32.3343Z" fill="white"/>
</svg>
